<svg xmlns="http://www.w3.org/2000/svg" width="1100" height="640" viewBox="0 0 1100 640" role="img" aria-labelledby="title desc">
<title>Figure</title>
<desc>Submission figure</desc>
<rect width="1100" height="640" fill="#f8fafc"/>
<text x="110.0" y="48.0" font-family="Arial, Helvetica, sans-serif" font-size="30" fill="#10141b" font-weight="700" text-anchor="start">Figure 2. Exact paper-family Qwen models in the partner vLLM matrix</text>
<text x="110.0" y="78.0" font-family="Arial, Helvetica, sans-serif" font-size="16" fill="#7b8a9a" font-weight="400" text-anchor="start">The closer runtime produced judged positives, but FITD did not show a strong Qwen-family lift.</text>
<line x1="110" y1="520.0" x2="1040" y2="520.0" stroke="#d6dde6" stroke-width="1"/>
<text x="98.0" y="525.0" font-family="Arial, Helvetica, sans-serif" font-size="14" fill="#7b8a9a" font-weight="400" text-anchor="end">0.00</text>
<line x1="110" y1="440.0" x2="1040" y2="440.0" stroke="#d6dde6" stroke-width="1"/>
<text x="98.0" y="445.0" font-family="Arial, Helvetica, sans-serif" font-size="14" fill="#7b8a9a" font-weight="400" text-anchor="end">0.03</text>
<line x1="110" y1="360.0" x2="1040" y2="360.0" stroke="#d6dde6" stroke-width="1"/>
<text x="98.0" y="365.0" font-family="Arial, Helvetica, sans-serif" font-size="14" fill="#7b8a9a" font-weight="400" text-anchor="end">0.06</text>
<line x1="110" y1="280.0" x2="1040" y2="280.0" stroke="#d6dde6" stroke-width="1"/>
<text x="98.0" y="285.0" font-family="Arial, Helvetica, sans-serif" font-size="14" fill="#7b8a9a" font-weight="400" text-anchor="end">0.10</text>
<line x1="110" y1="200.0" x2="1040" y2="200.0" stroke="#d6dde6" stroke-width="1"/>
<text x="98.0" y="205.0" font-family="Arial, Helvetica, sans-serif" font-size="14" fill="#7b8a9a" font-weight="400" text-anchor="end">0.13</text>
<line x1="110" y1="120.0" x2="1040" y2="120.0" stroke="#d6dde6" stroke-width="1"/>
<text x="98.0" y="125.0" font-family="Arial, Helvetica, sans-serif" font-size="14" fill="#7b8a9a" font-weight="400" text-anchor="end">0.16</text>
<line x1="110" y1="120" x2="110" y2="520" stroke="#10141b" stroke-width="2"/>
<line x1="110" y1="520" x2="1040" y2="520" stroke="#10141b" stroke-width="2"/>
<text x="36" y="320.0" transform="rotate(-90 36 320.0)" font-family="Arial, Helvetica, sans-serif" font-size="16" fill="#7b8a9a" font-weight="600" text-anchor="middle">Judge ASR</text>
<rect x="207.6" y="220.0" width="83.7" height="300.0" rx="8" fill="#7fe7ff"/>
<text x="249.5" y="210.0" font-family="Arial, Helvetica, sans-serif" font-size="13" fill="#10141b" font-weight="600" text-anchor="middle">0.12</text>
<rect x="320.6" y="220.0" width="83.7" height="300.0" rx="8" fill="#ff9c49"/>
<text x="362.5" y="210.0" font-family="Arial, Helvetica, sans-serif" font-size="13" fill="#10141b" font-weight="600" text-anchor="middle">0.12</text>
<rect x="433.6" y="320.0" width="83.7" height="200.0" rx="8" fill="#5de2a5"/>
<text x="475.5" y="310.0" font-family="Arial, Helvetica, sans-serif" font-size="13" fill="#10141b" font-weight="600" text-anchor="middle">0.08</text>
<text x="362.5" y="552.0" font-family="Arial, Helvetica, sans-serif" font-size="15" fill="#10141b" font-weight="600" text-anchor="middle">Qwen2 7B</text>
<rect x="672.6" y="220.0" width="83.7" height="300.0" rx="8" fill="#7fe7ff"/>
<text x="714.5" y="210.0" font-family="Arial, Helvetica, sans-serif" font-size="13" fill="#10141b" font-weight="600" text-anchor="middle">0.12</text>
<rect x="785.6" y="420.0" width="83.7" height="100.0" rx="8" fill="#ff9c49"/>
<text x="827.5" y="410.0" font-family="Arial, Helvetica, sans-serif" font-size="13" fill="#10141b" font-weight="600" text-anchor="middle">0.04</text>
<rect x="898.6" y="420.0" width="83.7" height="100.0" rx="8" fill="#5de2a5"/>
<text x="940.5" y="410.0" font-family="Arial, Helvetica, sans-serif" font-size="13" fill="#10141b" font-weight="600" text-anchor="middle">0.04</text>
<text x="827.5" y="552.0" font-family="Arial, Helvetica, sans-serif" font-size="15" fill="#10141b" font-weight="600" text-anchor="middle">Qwen1.5 7B</text>
<rect x="770.0" y="44.0" width="18" height="18" rx="4" fill="#7fe7ff"/>
<text x="796.0" y="58.0" font-family="Arial, Helvetica, sans-serif" font-size="13" fill="#10141b" font-weight="400" text-anchor="start">Standard</text>
<rect x="856.0" y="44.0" width="18" height="18" rx="4" fill="#ff9c49"/>
<text x="882.0" y="58.0" font-family="Arial, Helvetica, sans-serif" font-size="13" fill="#10141b" font-weight="400" text-anchor="start">FITD</text>
<rect x="942.0" y="44.0" width="18" height="18" rx="4" fill="#5de2a5"/>
<text x="968.0" y="58.0" font-family="Arial, Helvetica, sans-serif" font-size="13" fill="#10141b" font-weight="400" text-anchor="start">FITD+V</text>
</svg>