<svg xmlns="http://www.w3.org/2000/svg" width="1100" height="640" viewBox="0 0 1100 640" role="img" aria-labelledby="title desc">
<title>Figure</title>
<desc>Submission figure</desc>
<rect width="1100" height="640" fill="#f8fafc"/>
<text x="110.0" y="48.0" font-family="Arial, Helvetica, sans-serif" font-size="30" fill="#10141b" font-weight="700" text-anchor="start">Figure 1. Judge-rescored ASR in the partner vLLM matrix</text>
<text x="110.0" y="78.0" font-family="Arial, Helvetica, sans-serif" font-size="16" fill="#7b8a9a" font-weight="400" text-anchor="start">The closer GPU/vLLM setup did produce harmful outputs, but the lift was highly model-dependent.</text>
<line x1="110" y1="520.0" x2="1040" y2="520.0" stroke="#d6dde6" stroke-width="1"/>
<text x="98.0" y="525.0" font-family="Arial, Helvetica, sans-serif" font-size="14" fill="#7b8a9a" font-weight="400" text-anchor="end">0.00</text>
<line x1="110" y1="440.0" x2="1040" y2="440.0" stroke="#d6dde6" stroke-width="1"/>
<text x="98.0" y="445.0" font-family="Arial, Helvetica, sans-serif" font-size="14" fill="#7b8a9a" font-weight="400" text-anchor="end">0.16</text>
<line x1="110" y1="360.0" x2="1040" y2="360.0" stroke="#d6dde6" stroke-width="1"/>
<text x="98.0" y="365.0" font-family="Arial, Helvetica, sans-serif" font-size="14" fill="#7b8a9a" font-weight="400" text-anchor="end">0.32</text>
<line x1="110" y1="280.0" x2="1040" y2="280.0" stroke="#d6dde6" stroke-width="1"/>
<text x="98.0" y="285.0" font-family="Arial, Helvetica, sans-serif" font-size="14" fill="#7b8a9a" font-weight="400" text-anchor="end">0.48</text>
<line x1="110" y1="200.0" x2="1040" y2="200.0" stroke="#d6dde6" stroke-width="1"/>
<text x="98.0" y="205.0" font-family="Arial, Helvetica, sans-serif" font-size="14" fill="#7b8a9a" font-weight="400" text-anchor="end">0.64</text>
<line x1="110" y1="120.0" x2="1040" y2="120.0" stroke="#d6dde6" stroke-width="1"/>
<text x="98.0" y="125.0" font-family="Arial, Helvetica, sans-serif" font-size="14" fill="#7b8a9a" font-weight="400" text-anchor="end">0.80</text>
<line x1="110" y1="120" x2="110" y2="520" stroke="#10141b" stroke-width="2"/>
<line x1="110" y1="520" x2="1040" y2="520" stroke="#10141b" stroke-width="2"/>
<text x="36" y="320.0" transform="rotate(-90 36 320.0)" font-family="Arial, Helvetica, sans-serif" font-size="16" fill="#7b8a9a" font-weight="600" text-anchor="middle">Judge ASR</text>
<rect x="149.1" y="280.0" width="33.5" height="240.0" rx="8" fill="#7fe7ff"/>
<text x="165.8" y="270.0" font-family="Arial, Helvetica, sans-serif" font-size="13" fill="#10141b" font-weight="600" text-anchor="middle">0.48</text>
<rect x="194.3" y="160.0" width="33.5" height="360.0" rx="8" fill="#ff9c49"/>
<text x="211.0" y="150.0" font-family="Arial, Helvetica, sans-serif" font-size="13" fill="#10141b" font-weight="600" text-anchor="middle">0.72</text>
<rect x="239.5" y="260.0" width="33.5" height="260.0" rx="8" fill="#5de2a5"/>
<text x="256.2" y="250.0" font-family="Arial, Helvetica, sans-serif" font-size="13" fill="#10141b" font-weight="600" text-anchor="middle">0.52</text>
<text x="211.0" y="552.0" font-family="Arial, Helvetica, sans-serif" font-size="15" fill="#10141b" font-weight="600" text-anchor="middle">Mistral 7B</text>
<rect x="335.1" y="420.0" width="33.5" height="100.0" rx="8" fill="#7fe7ff"/>
<text x="351.8" y="410.0" font-family="Arial, Helvetica, sans-serif" font-size="13" fill="#10141b" font-weight="600" text-anchor="middle">0.20</text>
<rect x="380.3" y="400.0" width="33.5" height="120.0" rx="8" fill="#ff9c49"/>
<text x="397.0" y="390.0" font-family="Arial, Helvetica, sans-serif" font-size="13" fill="#10141b" font-weight="600" text-anchor="middle">0.24</text>
<rect x="425.5" y="380.0" width="33.5" height="140.0" rx="8" fill="#5de2a5"/>
<text x="442.2" y="370.0" font-family="Arial, Helvetica, sans-serif" font-size="13" fill="#10141b" font-weight="600" text-anchor="middle">0.28</text>
<text x="397.0" y="552.0" font-family="Arial, Helvetica, sans-serif" font-size="15" fill="#10141b" font-weight="600" text-anchor="middle">Llama 3.1 8B</text>
<rect x="521.1" y="460.0" width="33.5" height="60.0" rx="8" fill="#7fe7ff"/>
<text x="537.8" y="450.0" font-family="Arial, Helvetica, sans-serif" font-size="13" fill="#10141b" font-weight="600" text-anchor="middle">0.12</text>
<rect x="566.3" y="460.0" width="33.5" height="60.0" rx="8" fill="#ff9c49"/>
<text x="583.0" y="450.0" font-family="Arial, Helvetica, sans-serif" font-size="13" fill="#10141b" font-weight="600" text-anchor="middle">0.12</text>
<rect x="611.5" y="480.0" width="33.5" height="40.0" rx="8" fill="#5de2a5"/>
<text x="628.2" y="470.0" font-family="Arial, Helvetica, sans-serif" font-size="13" fill="#10141b" font-weight="600" text-anchor="middle">0.08</text>
<text x="583.0" y="552.0" font-family="Arial, Helvetica, sans-serif" font-size="15" fill="#10141b" font-weight="600" text-anchor="middle">Qwen2 7B</text>
<rect x="707.1" y="460.0" width="33.5" height="60.0" rx="8" fill="#7fe7ff"/>
<text x="723.8" y="450.0" font-family="Arial, Helvetica, sans-serif" font-size="13" fill="#10141b" font-weight="600" text-anchor="middle">0.12</text>
<rect x="752.3" y="500.0" width="33.5" height="20.0" rx="8" fill="#ff9c49"/>
<text x="769.0" y="490.0" font-family="Arial, Helvetica, sans-serif" font-size="13" fill="#10141b" font-weight="600" text-anchor="middle">0.04</text>
<rect x="797.5" y="500.0" width="33.5" height="20.0" rx="8" fill="#5de2a5"/>
<text x="814.2" y="490.0" font-family="Arial, Helvetica, sans-serif" font-size="13" fill="#10141b" font-weight="600" text-anchor="middle">0.04</text>
<text x="769.0" y="552.0" font-family="Arial, Helvetica, sans-serif" font-size="15" fill="#10141b" font-weight="600" text-anchor="middle">Qwen1.5 7B</text>
<rect x="893.1" y="520.0" width="33.5" height="0.0" rx="8" fill="#7fe7ff"/>
<text x="909.8" y="510.0" font-family="Arial, Helvetica, sans-serif" font-size="13" fill="#10141b" font-weight="600" text-anchor="middle">0.00</text>
<rect x="938.3" y="500.0" width="33.5" height="20.0" rx="8" fill="#ff9c49"/>
<text x="955.0" y="490.0" font-family="Arial, Helvetica, sans-serif" font-size="13" fill="#10141b" font-weight="600" text-anchor="middle">0.04</text>
<rect x="983.5" y="520.0" width="33.5" height="0.0" rx="8" fill="#5de2a5"/>
<text x="1000.2" y="510.0" font-family="Arial, Helvetica, sans-serif" font-size="13" fill="#10141b" font-weight="600" text-anchor="middle">0.00</text>
<text x="955.0" y="552.0" font-family="Arial, Helvetica, sans-serif" font-size="15" fill="#10141b" font-weight="600" text-anchor="middle">Llama 3 8B</text>
<rect x="770.0" y="44.0" width="18" height="18" rx="4" fill="#7fe7ff"/>
<text x="796.0" y="58.0" font-family="Arial, Helvetica, sans-serif" font-size="13" fill="#10141b" font-weight="400" text-anchor="start">Standard</text>
<rect x="856.0" y="44.0" width="18" height="18" rx="4" fill="#ff9c49"/>
<text x="882.0" y="58.0" font-family="Arial, Helvetica, sans-serif" font-size="13" fill="#10141b" font-weight="400" text-anchor="start">FITD</text>
<rect x="942.0" y="44.0" width="18" height="18" rx="4" fill="#5de2a5"/>
<text x="968.0" y="58.0" font-family="Arial, Helvetica, sans-serif" font-size="13" fill="#10141b" font-weight="400" text-anchor="start">FITD+V</text>
</svg>