<svg xmlns="http://www.w3.org/2000/svg" width="1100" height="640" viewBox="0 0 1100 640" role="img" aria-labelledby="title desc">
<title>Figure</title>
<desc>Submission figure</desc>
<rect width="1100" height="640" fill="#f8fafc"/>
<text x="110.0" y="48.0" font-family="Arial, Helvetica, sans-serif" font-size="30" fill="#10141b" font-weight="700" text-anchor="start">Figure 1. Heuristic attack success rate by model and condition</text>
<text x="110.0" y="78.0" font-family="Arial, Helvetica, sans-serif" font-size="16" fill="#7b8a9a" font-weight="400" text-anchor="start">Only Qwen showed a small heuristic lift, and manual audit later removed it.</text>
<line x1="110" y1="520.0" x2="1040" y2="520.0" stroke="#d6dde6" stroke-width="1"/>
<text x="98.0" y="525.0" font-family="Arial, Helvetica, sans-serif" font-size="14" fill="#7b8a9a" font-weight="400" text-anchor="end">0.00</text>
<line x1="110" y1="440.0" x2="1040" y2="440.0" stroke="#d6dde6" stroke-width="1"/>
<text x="98.0" y="445.0" font-family="Arial, Helvetica, sans-serif" font-size="14" fill="#7b8a9a" font-weight="400" text-anchor="end">0.02</text>
<line x1="110" y1="360.0" x2="1040" y2="360.0" stroke="#d6dde6" stroke-width="1"/>
<text x="98.0" y="365.0" font-family="Arial, Helvetica, sans-serif" font-size="14" fill="#7b8a9a" font-weight="400" text-anchor="end">0.05</text>
<line x1="110" y1="280.0" x2="1040" y2="280.0" stroke="#d6dde6" stroke-width="1"/>
<text x="98.0" y="285.0" font-family="Arial, Helvetica, sans-serif" font-size="14" fill="#7b8a9a" font-weight="400" text-anchor="end">0.07</text>
<line x1="110" y1="200.0" x2="1040" y2="200.0" stroke="#d6dde6" stroke-width="1"/>
<text x="98.0" y="205.0" font-family="Arial, Helvetica, sans-serif" font-size="14" fill="#7b8a9a" font-weight="400" text-anchor="end">0.10</text>
<line x1="110" y1="120.0" x2="1040" y2="120.0" stroke="#d6dde6" stroke-width="1"/>
<text x="98.0" y="125.0" font-family="Arial, Helvetica, sans-serif" font-size="14" fill="#7b8a9a" font-weight="400" text-anchor="end">0.12</text>
<line x1="110" y1="120" x2="110" y2="520" stroke="#10141b" stroke-width="2"/>
<line x1="110" y1="520" x2="1040" y2="520" stroke="#10141b" stroke-width="2"/>
<text x="36" y="320.0" transform="rotate(-90 36 320.0)" font-family="Arial, Helvetica, sans-serif" font-size="16" fill="#7b8a9a" font-weight="600" text-anchor="middle">Heuristic ASR</text>
<rect x="175.1" y="520.0" width="55.8" height="0.0" rx="8" fill="#7fe7ff"/>
<text x="203.0" y="510.0" font-family="Arial, Helvetica, sans-serif" font-size="13" fill="#10141b" font-weight="600" text-anchor="middle">0.00</text>
<rect x="250.4" y="186.7" width="55.8" height="333.3" rx="8" fill="#ff9c49"/>
<text x="278.3" y="176.7" font-family="Arial, Helvetica, sans-serif" font-size="13" fill="#10141b" font-weight="600" text-anchor="middle">0.10</text>
<rect x="325.8" y="353.3" width="55.8" height="166.7" rx="8" fill="#5de2a5"/>
<text x="353.7" y="343.3" font-family="Arial, Helvetica, sans-serif" font-size="13" fill="#10141b" font-weight="600" text-anchor="middle">0.05</text>
<text x="278.3" y="552.0" font-family="Arial, Helvetica, sans-serif" font-size="15" fill="#10141b" font-weight="600" text-anchor="middle">Qwen 2.5 3B</text>
<rect x="485.1" y="520.0" width="55.8" height="0.0" rx="8" fill="#7fe7ff"/>
<text x="513.0" y="510.0" font-family="Arial, Helvetica, sans-serif" font-size="13" fill="#10141b" font-weight="600" text-anchor="middle">0.00</text>
<rect x="560.4" y="520.0" width="55.8" height="0.0" rx="8" fill="#ff9c49"/>
<text x="588.3" y="510.0" font-family="Arial, Helvetica, sans-serif" font-size="13" fill="#10141b" font-weight="600" text-anchor="middle">0.00</text>
<rect x="635.8" y="520.0" width="55.8" height="0.0" rx="8" fill="#5de2a5"/>
<text x="663.7" y="510.0" font-family="Arial, Helvetica, sans-serif" font-size="13" fill="#10141b" font-weight="600" text-anchor="middle">0.00</text>
<text x="588.3" y="552.0" font-family="Arial, Helvetica, sans-serif" font-size="15" fill="#10141b" font-weight="600" text-anchor="middle">Gemma 4 E4B</text>
<rect x="795.1" y="520.0" width="55.8" height="0.0" rx="8" fill="#7fe7ff"/>
<text x="823.0" y="510.0" font-family="Arial, Helvetica, sans-serif" font-size="13" fill="#10141b" font-weight="600" text-anchor="middle">0.00</text>
<rect x="870.4" y="520.0" width="55.8" height="0.0" rx="8" fill="#ff9c49"/>
<text x="898.3" y="510.0" font-family="Arial, Helvetica, sans-serif" font-size="13" fill="#10141b" font-weight="600" text-anchor="middle">0.00</text>
<rect x="945.8" y="520.0" width="55.8" height="0.0" rx="8" fill="#5de2a5"/>
<text x="973.7" y="510.0" font-family="Arial, Helvetica, sans-serif" font-size="13" fill="#10141b" font-weight="600" text-anchor="middle">0.00</text>
<text x="898.3" y="552.0" font-family="Arial, Helvetica, sans-serif" font-size="15" fill="#10141b" font-weight="600" text-anchor="middle">Llama 3 8B</text>
<rect x="770.0" y="44.0" width="18" height="18" rx="4" fill="#7fe7ff"/>
<text x="796.0" y="58.0" font-family="Arial, Helvetica, sans-serif" font-size="13" fill="#10141b" font-weight="400" text-anchor="start">Standard</text>
<rect x="856.0" y="44.0" width="18" height="18" rx="4" fill="#ff9c49"/>
<text x="882.0" y="58.0" font-family="Arial, Helvetica, sans-serif" font-size="13" fill="#10141b" font-weight="400" text-anchor="start">FITD</text>
<rect x="942.0" y="44.0" width="18" height="18" rx="4" fill="#5de2a5"/>
<text x="968.0" y="58.0" font-family="Arial, Helvetica, sans-serif" font-size="13" fill="#10141b" font-weight="400" text-anchor="start">FITD+V</text>
</svg>