<svg xmlns="http://www.w3.org/2000/svg" width="1450" height="560" viewBox="0 0 1450 560" role="img" aria-labelledby="title desc">
<title>Figure</title>
<desc>Submission figure</desc>
<rect width="1450" height="560" fill="#f8fafc"/>
<text x="110.0" y="42.0" font-family="Arial, Helvetica, sans-serif" font-size="28" fill="#10141b" font-weight="700" text-anchor="start">Figure 2. Exact paper-family Qwen models in the partner vLLM matrix</text>
<text x="110.0" y="70.0" font-family="Arial, Helvetica, sans-serif" font-size="15" fill="#7b8a9a" font-weight="400" text-anchor="start">The closer runtime produced judged positives, but FITD did not show a strong Qwen-family lift.</text>
<line x1="110" y1="472.0" x2="1400" y2="472.0" stroke="#d6dde6" stroke-width="1"/>
<text x="98.0" y="477.0" font-family="Arial, Helvetica, sans-serif" font-size="13" fill="#7b8a9a" font-weight="400" text-anchor="end">0.00</text>
<line x1="110" y1="398.0" x2="1400" y2="398.0" stroke="#d6dde6" stroke-width="1"/>
<text x="98.0" y="403.0" font-family="Arial, Helvetica, sans-serif" font-size="13" fill="#7b8a9a" font-weight="400" text-anchor="end">0.03</text>
<line x1="110" y1="324.0" x2="1400" y2="324.0" stroke="#d6dde6" stroke-width="1"/>
<text x="98.0" y="329.0" font-family="Arial, Helvetica, sans-serif" font-size="13" fill="#7b8a9a" font-weight="400" text-anchor="end">0.06</text>
<line x1="110" y1="250.0" x2="1400" y2="250.0" stroke="#d6dde6" stroke-width="1"/>
<text x="98.0" y="255.0" font-family="Arial, Helvetica, sans-serif" font-size="13" fill="#7b8a9a" font-weight="400" text-anchor="end">0.10</text>
<line x1="110" y1="176.0" x2="1400" y2="176.0" stroke="#d6dde6" stroke-width="1"/>
<text x="98.0" y="181.0" font-family="Arial, Helvetica, sans-serif" font-size="13" fill="#7b8a9a" font-weight="400" text-anchor="end">0.13</text>
<line x1="110" y1="102.0" x2="1400" y2="102.0" stroke="#d6dde6" stroke-width="1"/>
<text x="98.0" y="107.0" font-family="Arial, Helvetica, sans-serif" font-size="13" fill="#7b8a9a" font-weight="400" text-anchor="end">0.16</text>
<line x1="110" y1="102" x2="110" y2="472" stroke="#10141b" stroke-width="2"/>
<line x1="110" y1="472" x2="1400" y2="472" stroke="#10141b" stroke-width="2"/>
<text x="36" y="287.0" transform="rotate(-90 36 287.0)" font-family="Arial, Helvetica, sans-serif" font-size="15" fill="#7b8a9a" font-weight="600" text-anchor="middle">Judge ASR</text>
<rect x="245.4" y="194.5" width="116.1" height="277.5" rx="8" fill="#7fe7ff"/>
<text x="303.5" y="184.5" font-family="Arial, Helvetica, sans-serif" font-size="12" fill="#10141b" font-weight="600" text-anchor="middle">0.12</text>
<rect x="402.2" y="194.5" width="116.1" height="277.5" rx="8" fill="#ff9c49"/>
<text x="460.2" y="184.5" font-family="Arial, Helvetica, sans-serif" font-size="12" fill="#10141b" font-weight="600" text-anchor="middle">0.12</text>
<rect x="558.9" y="287.0" width="116.1" height="185.0" rx="8" fill="#5de2a5"/>
<text x="617.0" y="277.0" font-family="Arial, Helvetica, sans-serif" font-size="12" fill="#10141b" font-weight="600" text-anchor="middle">0.08</text>
<text x="460.2" y="502.0" font-family="Arial, Helvetica, sans-serif" font-size="14" fill="#10141b" font-weight="600" text-anchor="middle">Qwen2 7B</text>
<rect x="890.5" y="194.5" width="116.1" height="277.5" rx="8" fill="#7fe7ff"/>
<text x="948.5" y="184.5" font-family="Arial, Helvetica, sans-serif" font-size="12" fill="#10141b" font-weight="600" text-anchor="middle">0.12</text>
<rect x="1047.2" y="379.5" width="116.1" height="92.5" rx="8" fill="#ff9c49"/>
<text x="1105.2" y="369.5" font-family="Arial, Helvetica, sans-serif" font-size="12" fill="#10141b" font-weight="600" text-anchor="middle">0.04</text>
<rect x="1203.9" y="379.5" width="116.1" height="92.5" rx="8" fill="#5de2a5"/>
<text x="1262.0" y="369.5" font-family="Arial, Helvetica, sans-serif" font-size="12" fill="#10141b" font-weight="600" text-anchor="middle">0.04</text>
<text x="1105.2" y="502.0" font-family="Arial, Helvetica, sans-serif" font-size="14" fill="#10141b" font-weight="600" text-anchor="middle">Qwen1.5 7B</text>
<rect x="1145.0" y="28.0" width="18" height="18" rx="4" fill="#7fe7ff"/>
<text x="1171.0" y="42.0" font-family="Arial, Helvetica, sans-serif" font-size="12" fill="#10141b" font-weight="400" text-anchor="start">Standard</text>
<rect x="1227.0" y="28.0" width="18" height="18" rx="4" fill="#ff9c49"/>
<text x="1253.0" y="42.0" font-family="Arial, Helvetica, sans-serif" font-size="12" fill="#10141b" font-weight="400" text-anchor="start">FITD</text>
<rect x="1309.0" y="28.0" width="18" height="18" rx="4" fill="#5de2a5"/>
<text x="1335.0" y="42.0" font-family="Arial, Helvetica, sans-serif" font-size="12" fill="#10141b" font-weight="400" text-anchor="start">FITD+V</text>
</svg>