<svg xmlns="http://www.w3.org/2000/svg" width="1450" height="560" viewBox="0 0 1450 560" role="img" aria-labelledby="title desc">
<title>Figure</title>
<desc>Submission figure</desc>
<rect width="1450" height="560" fill="#f8fafc"/>
<text x="110.0" y="42.0" font-family="Arial, Helvetica, sans-serif" font-size="28" fill="#10141b" font-weight="700" text-anchor="start">Figure 1. Judge-rescored ASR in the partner vLLM matrix</text>
<text x="110.0" y="70.0" font-family="Arial, Helvetica, sans-serif" font-size="15" fill="#7b8a9a" font-weight="400" text-anchor="start">The closer GPU/vLLM setup did produce harmful outputs, but the lift was highly model-dependent.</text>
<line x1="110" y1="472.0" x2="1400" y2="472.0" stroke="#d6dde6" stroke-width="1"/>
<text x="98.0" y="477.0" font-family="Arial, Helvetica, sans-serif" font-size="13" fill="#7b8a9a" font-weight="400" text-anchor="end">0.00</text>
<line x1="110" y1="398.0" x2="1400" y2="398.0" stroke="#d6dde6" stroke-width="1"/>
<text x="98.0" y="403.0" font-family="Arial, Helvetica, sans-serif" font-size="13" fill="#7b8a9a" font-weight="400" text-anchor="end">0.16</text>
<line x1="110" y1="324.0" x2="1400" y2="324.0" stroke="#d6dde6" stroke-width="1"/>
<text x="98.0" y="329.0" font-family="Arial, Helvetica, sans-serif" font-size="13" fill="#7b8a9a" font-weight="400" text-anchor="end">0.32</text>
<line x1="110" y1="250.0" x2="1400" y2="250.0" stroke="#d6dde6" stroke-width="1"/>
<text x="98.0" y="255.0" font-family="Arial, Helvetica, sans-serif" font-size="13" fill="#7b8a9a" font-weight="400" text-anchor="end">0.48</text>
<line x1="110" y1="176.0" x2="1400" y2="176.0" stroke="#d6dde6" stroke-width="1"/>
<text x="98.0" y="181.0" font-family="Arial, Helvetica, sans-serif" font-size="13" fill="#7b8a9a" font-weight="400" text-anchor="end">0.64</text>
<line x1="110" y1="102.0" x2="1400" y2="102.0" stroke="#d6dde6" stroke-width="1"/>
<text x="98.0" y="107.0" font-family="Arial, Helvetica, sans-serif" font-size="13" fill="#7b8a9a" font-weight="400" text-anchor="end">0.80</text>
<line x1="110" y1="102" x2="110" y2="472" stroke="#10141b" stroke-width="2"/>
<line x1="110" y1="472" x2="1400" y2="472" stroke="#10141b" stroke-width="2"/>
<text x="36" y="287.0" transform="rotate(-90 36 287.0)" font-family="Arial, Helvetica, sans-serif" font-size="15" fill="#7b8a9a" font-weight="600" text-anchor="middle">Judge ASR</text>
<rect x="164.2" y="250.0" width="46.4" height="222.0" rx="8" fill="#7fe7ff"/>
<text x="187.4" y="240.0" font-family="Arial, Helvetica, sans-serif" font-size="12" fill="#10141b" font-weight="600" text-anchor="middle">0.48</text>
<rect x="226.9" y="139.0" width="46.4" height="333.0" rx="8" fill="#ff9c49"/>
<text x="250.1" y="129.0" font-family="Arial, Helvetica, sans-serif" font-size="12" fill="#10141b" font-weight="600" text-anchor="middle">0.72</text>
<rect x="289.6" y="231.5" width="46.4" height="240.5" rx="8" fill="#5de2a5"/>
<text x="312.8" y="221.5" font-family="Arial, Helvetica, sans-serif" font-size="12" fill="#10141b" font-weight="600" text-anchor="middle">0.52</text>
<text x="250.1" y="502.0" font-family="Arial, Helvetica, sans-serif" font-size="14" fill="#10141b" font-weight="600" text-anchor="middle">Mistral 7B</text>
<rect x="422.2" y="379.5" width="46.4" height="92.5" rx="8" fill="#7fe7ff"/>
<text x="445.4" y="369.5" font-family="Arial, Helvetica, sans-serif" font-size="12" fill="#10141b" font-weight="600" text-anchor="middle">0.20</text>
<rect x="484.9" y="361.0" width="46.4" height="111.0" rx="8" fill="#ff9c49"/>
<text x="508.1" y="351.0" font-family="Arial, Helvetica, sans-serif" font-size="12" fill="#10141b" font-weight="600" text-anchor="middle">0.24</text>
<rect x="547.6" y="342.5" width="46.4" height="129.5" rx="8" fill="#5de2a5"/>
<text x="570.8" y="332.5" font-family="Arial, Helvetica, sans-serif" font-size="12" fill="#10141b" font-weight="600" text-anchor="middle">0.28</text>
<text x="508.1" y="502.0" font-family="Arial, Helvetica, sans-serif" font-size="14" fill="#10141b" font-weight="600" text-anchor="middle">Llama 3.1 8B</text>
<rect x="680.2" y="416.5" width="46.4" height="55.5" rx="8" fill="#7fe7ff"/>
<text x="703.4" y="406.5" font-family="Arial, Helvetica, sans-serif" font-size="12" fill="#10141b" font-weight="600" text-anchor="middle">0.12</text>
<rect x="742.9" y="416.5" width="46.4" height="55.5" rx="8" fill="#ff9c49"/>
<text x="766.1" y="406.5" font-family="Arial, Helvetica, sans-serif" font-size="12" fill="#10141b" font-weight="600" text-anchor="middle">0.12</text>
<rect x="805.6" y="435.0" width="46.4" height="37.0" rx="8" fill="#5de2a5"/>
<text x="828.8" y="425.0" font-family="Arial, Helvetica, sans-serif" font-size="12" fill="#10141b" font-weight="600" text-anchor="middle">0.08</text>
<text x="766.1" y="502.0" font-family="Arial, Helvetica, sans-serif" font-size="14" fill="#10141b" font-weight="600" text-anchor="middle">Qwen2 7B</text>
<rect x="938.2" y="416.5" width="46.4" height="55.5" rx="8" fill="#7fe7ff"/>
<text x="961.4" y="406.5" font-family="Arial, Helvetica, sans-serif" font-size="12" fill="#10141b" font-weight="600" text-anchor="middle">0.12</text>
<rect x="1000.9" y="453.5" width="46.4" height="18.5" rx="8" fill="#ff9c49"/>
<text x="1024.1" y="443.5" font-family="Arial, Helvetica, sans-serif" font-size="12" fill="#10141b" font-weight="600" text-anchor="middle">0.04</text>
<rect x="1063.6" y="453.5" width="46.4" height="18.5" rx="8" fill="#5de2a5"/>
<text x="1086.8" y="443.5" font-family="Arial, Helvetica, sans-serif" font-size="12" fill="#10141b" font-weight="600" text-anchor="middle">0.04</text>
<text x="1024.1" y="502.0" font-family="Arial, Helvetica, sans-serif" font-size="14" fill="#10141b" font-weight="600" text-anchor="middle">Qwen1.5 7B</text>
<rect x="1196.2" y="472.0" width="46.4" height="0.0" rx="8" fill="#7fe7ff"/>
<text x="1219.4" y="462.0" font-family="Arial, Helvetica, sans-serif" font-size="12" fill="#10141b" font-weight="600" text-anchor="middle">0.00</text>
<rect x="1258.9" y="453.5" width="46.4" height="18.5" rx="8" fill="#ff9c49"/>
<text x="1282.1" y="443.5" font-family="Arial, Helvetica, sans-serif" font-size="12" fill="#10141b" font-weight="600" text-anchor="middle">0.04</text>
<rect x="1321.6" y="472.0" width="46.4" height="0.0" rx="8" fill="#5de2a5"/>
<text x="1344.8" y="462.0" font-family="Arial, Helvetica, sans-serif" font-size="12" fill="#10141b" font-weight="600" text-anchor="middle">0.00</text>
<text x="1282.1" y="502.0" font-family="Arial, Helvetica, sans-serif" font-size="14" fill="#10141b" font-weight="600" text-anchor="middle">Llama 3 8B</text>
<rect x="1145.0" y="28.0" width="18" height="18" rx="4" fill="#7fe7ff"/>
<text x="1171.0" y="42.0" font-family="Arial, Helvetica, sans-serif" font-size="12" fill="#10141b" font-weight="400" text-anchor="start">Standard</text>
<rect x="1227.0" y="28.0" width="18" height="18" rx="4" fill="#ff9c49"/>
<text x="1253.0" y="42.0" font-family="Arial, Helvetica, sans-serif" font-size="12" fill="#10141b" font-weight="400" text-anchor="start">FITD</text>
<rect x="1309.0" y="28.0" width="18" height="18" rx="4" fill="#5de2a5"/>
<text x="1335.0" y="42.0" font-family="Arial, Helvetica, sans-serif" font-size="12" fill="#10141b" font-weight="400" text-anchor="start">FITD+V</text>
</svg>